# xmcd
#
# Track frame offsets:
#	150
#	23940
#	46542
#	87225
#	105387
#	115852
#	131775
#	165250
#	180022
#
# Disc length: 2736 seconds
#
# Revision: 2
# Processed by: cddbd v1.5.2PL0 Copyright (c) Steve Scherf et al.
# Submitted via: audiograbber 1.83.01
#
DISCID=5b0aae09
DTITLE=George Benson - A&M Gold Series
DYEAR=1900
DGENRE=
TTITLE0=Shape of things to come
TTITLE1=I got a woman
TTITLE2=Here comes the sun - I want you
TTITLE3=Oh darling
TTITLE4=Jackie, all
TTITLE5=My cherie amour
TTITLE6=Because - come together
TTITLE7=Dontcha hear me callin to va
TTITLE8=Last train to Clarksville
EXTD=
EXTT0=
EXTT1=
EXTT2=
EXTT3=
EXTT4=
EXTT5=
EXTT6=
EXTT7=
EXTT8=
PLAYORDER=
